<?xml version="1.0" encoding="UTF-8" standalone="no"?>
<!-- Generator: Assembly 1.0 - http://assemblyapp.co -->

<svg
   xmlns:dc="http://purl.org/dc/elements/1.1/"
   xmlns:cc="http://creativecommons.org/ns#"
   xmlns:rdf="http://www.w3.org/1999/02/22-rdf-syntax-ns#"
   xmlns:svg="http://www.w3.org/2000/svg"
   xmlns="http://www.w3.org/2000/svg"
   xmlns:sodipodi="http://sodipodi.sourceforge.net/DTD/sodipodi-0.dtd"
   xmlns:inkscape="http://www.inkscape.org/namespaces/inkscape"
   version="1.1"
   width="300"
   height="300"
   viewBox="0 0 300 300"
   id="svg6407"
   sodipodi:docname="assembly-1.svg"
   inkscape:export-filename="C:\downloads\assembly-1.png"
   inkscape:export-xdpi="192"
   inkscape:export-ydpi="192"
   inkscape:version="0.92.2 (5c3e80d, 2017-08-06)">
  <metadata
     id="metadata6413">
    <rdf:RDF>
      <cc:Work
         rdf:about="">
        <dc:format>image/svg+xml</dc:format>
        <dc:type
           rdf:resource="http://purl.org/dc/dcmitype/StillImage" />
      </cc:Work>
    </rdf:RDF>
  </metadata>
  <defs
     id="defs6411" />
  <sodipodi:namedview
     pagecolor="#ffffff"
     bordercolor="#666666"
     borderopacity="1"
     objecttolerance="10"
     gridtolerance="10"
     guidetolerance="10"
     inkscape:pageopacity="0"
     inkscape:pageshadow="2"
     inkscape:window-width="3840"
     inkscape:window-height="2115"
     id="namedview6409"
     showgrid="false"
     inkscape:zoom="3.1466667"
     inkscape:cx="150"
     inkscape:cy="150"
     inkscape:window-x="-13"
     inkscape:window-y="-13"
     inkscape:window-maximized="1"
     inkscape:current-layer="svg6407" />
  <g
     id="widget"
     transform="matrix(1,0,0,1,150,150)">
    <path
       d="M126.755,-103.763 L134.36,-103.763 L134.36,-123.283 C134.36,-127.34 130.934,-130.666 126.755,-130.666 L73.4488,-130.666 C69.2692,-130.666 65.8434,-127.34 65.8434,-123.283 L65.8434,-71.5327 C65.8434,-67.4752 69.2692,-64.1493 73.4488,-64.1493 L94.7856,-64.1493 L94.7856,-71.5327 L73.4488,-71.5327 L73.4488,-123.283 L126.755,-123.283 L126.755,-103.763 Z M115.862,-93.7811 C116.267,-93.8242 116.666,-93.8458 117.059,-93.8458 C119.041,-93.8458 120.559,-93.3988 121.614,-92.5047 C122.669,-91.6107 123.197,-90.3421 123.197,-88.6991 C123.197,-87.3298 122.786,-85.9445 121.964,-84.543 C121.143,-83.1415 119.757,-81.4985 117.808,-79.6137 C116.503,-78.3411 114.768,-76.8269 112.601,-75.0711 C110.434,-73.3152 108.272,-71.656 106.113,-70.0935 L106.113,-64.1493 L134.36,-64.1493 L134.36,-71.0358 L118.195,-71.0358 C118.823,-71.4869 119.878,-72.2802 121.36,-73.4159 C122.842,-74.5516 124.316,-75.796 125.782,-77.1491 C128.118,-79.3238 129.854,-81.434 130.989,-83.4798 C132.125,-85.5256 132.693,-87.6842 132.693,-89.9555 C132.693,-93.4189 131.509,-96.097 129.141,-97.9898 C126.773,-99.8826 123.333,-100.829 118.823,-100.829 C117.835,-100.829 116.849,-100.78 115.862,-100.683 L115.862,-114.429 L106.403,-114.429 L106.403,-101.003 L92.4358,-101.003 L92.4358,-114.429 L82.9764,-114.429 L82.9764,-77.7491 L92.4358,-77.7491 L92.4358,-93.9088 L106.403,-93.9088 L106.403,-77.7491 L106.51,-77.7491 C107.397,-78.4362 108.284,-79.1395 109.172,-79.859 C111.338,-81.6149 113.074,-83.1291 114.379,-84.4017 C114.916,-84.9213 115.411,-85.4225 115.862,-85.9053 L115.862,-93.7811 Z"
       fill="#09476b"
       fill-opacity="1"
       id="path6388" />
    <path
       d="M-76.5502,-64.1493 C-65.4636,-64.1493 -56.5385,-73.0744 -56.5385,-84.161 L-56.5385,-113.935 C-56.5385,-125.021 -65.5333,-133.946 -76.5502,-133.946 L-106.324,-133.946 C-117.41,-133.946 -126.335,-124.951 -126.335,-113.935 L-126.335,-84.161 C-126.335,-73.0744 -117.341,-64.1493 -106.324,-64.1493 L-76.5502,-64.1493 Z M-84.2427,-103.54 L-84.2427,-103.54 L-84.2427,-95.6641 L-84.2427,-95.6641 C-84.6943,-95.1812 -85.1888,-94.6801 -85.7261,-94.1605 C-87.0309,-92.8879 -88.7667,-91.3737 -90.9333,-89.6178 C-91.8212,-88.8983 -92.7084,-88.1949 -93.595,-87.5078 L-93.7021,-87.5078 L-93.7021,-103.668 L-107.669,-103.668 L-107.669,-87.5078 L-117.129,-87.5078 L-117.129,-124.187 L-107.669,-124.187 L-107.669,-110.762 L-93.7021,-110.762 L-93.7021,-124.187 L-84.2427,-124.187 L-84.2427,-110.442 C-83.2566,-110.539 -82.2698,-110.588 -81.2821,-110.588 C-76.7717,-110.588 -73.3324,-109.641 -70.9645,-107.749 C-68.5965,-105.856 -67.4125,-103.178 -67.4125,-99.7143 C-67.4125,-97.443 -67.9803,-95.2844 -69.116,-93.2386 C-70.2517,-91.1928 -71.9874,-89.0826 -74.3231,-86.9079 C-75.789,-85.5548 -77.263,-84.3104 -78.745,-83.1747 C-80.227,-82.039 -81.2821,-81.2457 -81.9104,-80.7946 L-65.7452,-80.7946 L-65.7452,-73.9081 L-93.9919,-73.9081 L-93.9919,-79.8523 C-91.8333,-81.4148 -89.6707,-83.074 -87.5041,-84.8299 C-85.3375,-86.5857 -83.6018,-88.0999 -82.297,-89.3725 C-80.3478,-91.2572 -78.9625,-92.9003 -78.1409,-94.3018 C-77.3194,-95.7033 -76.9086,-97.0886 -76.9086,-98.4579 C-76.9086,-100.101 -77.4361,-101.37 -78.4913,-102.264 C-79.5464,-103.158 -81.0646,-103.605 -83.046,-103.605 C-83.4395,-103.605 -83.8384,-103.583 -84.2427,-103.54 Z"
       fill="#09476b"
       fill-opacity="1"
       id="path6390" />
    <path
       d="M115.862,96.6693 C116.267,96.6262 116.666,96.6046 117.059,96.6046 C119.041,96.6046 120.559,97.0516 121.614,97.9457 C122.669,98.8397 123.197,100.108 123.197,101.751 C123.197,103.121 122.786,104.506 121.964,105.907 C121.143,107.309 119.757,108.952 117.808,110.837 C116.503,112.109 114.768,113.623 112.601,115.379 C110.434,117.135 108.272,118.794 106.113,120.357 L106.113,126.301 L134.36,126.301 L134.36,119.415 L118.195,119.415 C118.823,118.964 119.878,118.17 121.36,117.035 C122.842,115.899 124.316,114.654 125.782,113.301 C128.118,111.127 129.854,109.016 130.989,106.971 C132.125,104.925 132.693,102.766 132.693,100.495 C132.693,97.0315 131.509,94.3534 129.141,92.4606 C126.773,90.5679 123.333,89.6215 118.823,89.6215 C117.835,89.6215 116.849,89.6701 115.862,89.7672 L115.862,76.0218 L106.403,76.0218 L106.403,89.4471 L92.4358,89.4471 L92.4358,76.0218 L82.9764,76.0218 L82.9764,112.701 L92.4358,112.701 L92.4358,96.5416 L106.403,96.5416 L106.403,112.701 L106.51,112.701 C107.397,112.014 108.284,111.311 109.172,110.591 C111.338,108.836 113.074,107.321 114.379,106.049 C114.916,105.529 115.411,105.028 115.862,104.545 L115.862,104.545 L115.862,96.6693 Z"
       fill="#09476b"
       fill-opacity="1"
       id="path6392" />
    <path
       d="M-76.6762,95.6693 C-76.2719,95.6262 -75.873,95.6046 -75.4795,95.6046 C-73.4981,95.6046 -71.9799,96.0516 -70.9248,96.9457 C-69.8697,97.8397 -69.3421,99.1083 -69.3421,100.751 C-69.3421,102.121 -69.7529,103.506 -70.5744,104.907 C-71.396,106.309 -72.7813,107.952 -74.7305,109.837 C-76.0353,111.109 -77.771,112.623 -79.9376,114.379 C-82.1042,116.135 -84.2668,117.794 -86.4254,119.357 L-86.4254,125.301 L-58.1787,125.301 L-58.1787,118.415 L-74.3439,118.415 C-73.7156,117.964 -72.6605,117.17 -71.1785,116.035 C-69.6965,114.899 -68.2225,113.654 -66.7566,112.301 C-64.4209,110.127 -62.6852,108.016 -61.5495,105.971 C-60.4138,103.925 -59.846,101.766 -59.846,99.4949 C-59.846,96.0315 -61.03,93.3534 -63.398,91.4606 C-65.7659,89.5679 -69.2052,88.6215 -73.7156,88.6215 C-74.7033,88.6215 -75.6901,88.6701 -76.6762,88.7672 L-76.6762,75.0218 L-86.1356,75.0218 L-86.1356,88.4471 L-100.103,88.4471 L-100.103,75.0218 L-109.562,75.0218 L-109.562,111.701 L-100.103,111.701 L-100.103,95.5416 L-86.1356,95.5416 L-86.1356,111.701 L-86.0285,111.701 C-85.1419,111.014 -84.2547,110.311 -83.3668,109.591 C-81.2002,107.836 -79.4644,106.321 -78.1596,105.049 C-77.6223,104.529 -77.1278,104.028 -76.6762,103.545 L-76.6762,95.6693 Z M-91.4035,124.301 C-109.205,124.301 -123.695,109.811 -123.695,92.0093 C-123.695,74.221 -109.219,59.7846 -91.4035,59.7846 C-73.6018,59.7846 -59.1787,74.2076 -59.1787,92.0093 L-59.1787,93.0093 L-57.1787,93.0093 L-57.1787,92.0093 C-57.1787,73.103 -72.4972,57.7846 -91.4035,57.7846 C-110.322,57.7846 -125.695,73.1152 -125.695,92.0093 C-125.695,110.916 -110.31,126.301 -91.4035,126.301 L-90.4035,126.301 L-90.4035,124.301 L-91.4035,124.301 Z"
       fill="#09476b"
       fill-opacity="1"
       id="path6394" />
    <path
       d="M-77.3739,5.37289 C-76.9696,5.32974 -76.5707,5.30816 -76.1772,5.30816 C-74.1958,5.30816 -72.6775,5.75517 -71.6224,6.64921 C-70.5673,7.54324 -70.0397,8.81181 -70.0397,10.4549 C-70.0397,11.8241 -70.4505,13.2095 -71.2721,14.611 C-72.0936,16.0124 -73.4789,17.6555 -75.4281,19.5402 C-76.7329,20.8128 -78.4686,22.327 -80.6353,24.0829 C-82.8019,25.8387 -84.9645,27.4979 -87.1231,29.0605 L-87.1231,35.0046 L-58.8764,35.0046 L-58.8764,28.1181 L-75.0415,28.1181 C-74.4133,27.6671 -73.3581,26.8737 -71.8761,25.7381 C-70.3941,24.6024 -68.9202,23.358 -67.4543,22.0049 C-65.1185,19.8302 -63.3828,17.7199 -62.2471,15.6741 C-61.1115,13.6283 -60.5436,11.4697 -60.5436,9.19842 C-60.5436,5.73504 -61.7276,3.05696 -64.0956,1.16418 C-66.4636,-0.728592 -69.9028,-1.67498 -74.4133,-1.67498 C-75.4009,-1.67498 -76.3878,-1.6264 -77.3739,-1.52924 L-77.3739,-15.2747 L-86.8332,-15.2747 L-86.8332,-1.84932 L-100.801,-1.84932 L-100.801,-15.2747 L-110.26,-15.2747 L-110.26,21.4049 L-100.801,21.4049 L-100.801,5.24519 L-86.8332,5.24519 L-86.8332,21.4049 L-86.7261,21.4049 C-85.8396,20.7178 -84.9523,20.0145 -84.0644,19.2949 C-81.8978,17.5391 -80.1621,16.0248 -78.8573,14.7522 C-78.32,14.2327 -77.8255,13.7315 -77.3739,13.2487 L-77.3739,5.37289 Z M-54.8671,-19.8361 L-54.8671,39.566 L-114.269,39.566 L-114.269,-19.8361 L-54.8671,-19.8361 Z M-54.8671,-28.3112 L-114.269,-28.3112 C-118.927,-28.3112 -122.744,-24.4936 -122.744,-19.8361 L-122.744,39.566 C-122.744,44.2235 -118.927,48.0411 -114.269,48.0411 L-54.8671,48.0411 C-50.2096,48.0411 -46.392,44.2235 -46.392,39.566 L-46.392,-19.8361 C-46.392,-24.4936 -50.2096,-28.3112 -54.8671,-28.3112 Z"
       fill="#09476b"
       fill-opacity="1"
       id="path6396" />
    <path
       d="M21.3007,-65.2492 L21.3007,-65.2492 C15.0398,-59.2371 6.536,-55.543 -2.8346,-55.543 C-22.087,-55.543 -37.6805,-71.1365 -37.6805,-90.3889 C-37.6805,-109.641 -22.087,-125.235 -2.8346,-125.235 C16.4178,-125.235 32.0113,-109.641 32.0113,-90.3889 C32.0113,-83.6389 30.0945,-77.3387 26.7753,-72.0027 L26.7753,-72.1357 L10.6101,-72.1357 C11.2384,-72.5867 12.2935,-73.3801 13.7755,-74.5158 C15.2575,-75.6514 16.7315,-76.8958 18.1974,-78.249 C20.5331,-80.4236 22.2688,-82.5339 23.4045,-84.5797 C24.5402,-86.6255 25.108,-88.7841 25.108,-91.0554 C25.108,-94.5188 23.924,-97.1969 21.556,-99.0896 C19.188,-100.982 15.7488,-101.929 11.2384,-101.929 C10.2507,-101.929 9.26385,-101.88 8.27776,-101.783 L8.27776,-115.529 L-1.18158,-115.529 L-1.18158,-102.103 L-15.1489,-102.103 L-15.1489,-115.529 L-24.6082,-115.529 L-24.6082,-78.8489 L-15.1489,-78.8489 L-15.1489,-95.0086 L-1.18158,-95.0086 L-1.18158,-78.8489 L-1.07447,-78.8489 C-0.187923,-79.536 0.699303,-80.2394 1.5872,-80.9589 C3.75383,-82.7148 5.48955,-84.229 6.79435,-85.5016 C7.33167,-86.0211 7.82614,-86.5223 8.27776,-87.0052 L8.27776,-94.8809 C8.68206,-94.9241 9.08096,-94.9457 9.47447,-94.9457 C11.4558,-94.9457 12.9741,-94.4987 14.0292,-93.6046 C15.0843,-92.7106 15.6119,-91.442 15.6119,-89.7989 C15.6119,-88.4297 15.2011,-87.0443 14.3796,-85.6429 C13.558,-84.2414 12.1727,-82.5983 10.2235,-80.7136 C8.91872,-79.441 7.183,-77.9268 5.01638,-76.1709 C2.84975,-74.4151 0.687153,-72.7559 -1.47142,-71.1933 L-1.47142,-65.2492 L21.3007,-65.2492 Z M-2.8346,-133.946 C-26.8783,-133.946 -46.392,-114.433 -46.392,-90.3889 C-46.392,-66.3452 -26.8783,-46.8315 -2.8346,-46.8315 C21.2091,-46.8315 40.7228,-66.3452 40.7228,-90.3889 C40.7228,-114.433 21.2091,-133.946 -2.8346,-133.946 Z"
       fill="#09476b"
       fill-opacity="1"
       id="path6398" />
    <path
       d="M-29.93,90.5821 L-21.107,90.5821 C-18.1761,74.2999 -3.94322,61.956 13.186,61.956 C30.3153,61.956 44.5482,74.2999 47.479,90.5821 L47.479,90.5821 L56.302,90.5821 C53.2809,69.4812 35.1181,53.2445 13.186,53.2445 C-8.74604,53.2445 -26.9089,69.4812 -29.93,90.5821 Z M-29.93,103.022 C-26.9089,124.123 -8.74604,140.359 13.186,140.359 C35.1181,140.359 53.2809,124.123 56.302,103.022 L47.479,103.022 C46.6874,107.42 45.0711,111.53 42.7959,115.188 L42.7959,115.055 L26.6308,115.055 C27.259,114.604 28.3141,113.811 29.7961,112.675 C31.2781,111.539 32.7521,110.295 34.218,108.942 C36.5537,106.767 38.2895,104.657 39.4251,102.611 C40.5608,100.565 41.1286,98.4067 41.1286,96.1354 C41.1286,92.672 39.9446,89.9939 37.5767,88.1011 C35.2087,86.2083 31.7695,85.262 27.259,85.262 C26.2714,85.262 25.2845,85.3105 24.2984,85.4077 L24.2984,71.6622 L14.839,71.6622 L14.839,85.0876 L0.871732,85.0876 L0.871732,71.6622 L-8.58761,71.6622 L-8.58761,108.342 L0.871732,108.342 L0.871732,92.1821 L14.839,92.1821 L14.839,108.342 L14.9462,108.342 C15.8327,107.655 16.7199,106.951 17.6078,106.232 C19.7745,104.476 21.5102,102.962 22.815,101.689 C23.3523,101.17 23.8468,100.668 24.2984,100.186 L24.2984,92.3098 C24.7027,92.2667 25.1016,92.2451 25.4951,92.2451 C27.4765,92.2451 28.9947,92.6921 30.0498,93.5861 C31.105,94.4802 31.6325,95.7487 31.6325,97.3918 C31.6325,98.7611 31.2218,100.146 30.4002,101.548 C29.5787,102.949 28.1933,104.592 26.2442,106.477 C24.9393,107.75 23.2036,109.264 21.037,111.02 C18.8704,112.776 16.7078,114.435 14.5492,115.997 L14.5492,121.942 L37.3214,121.942 C31.0605,127.954 22.5566,131.648 13.186,131.648 C-3.94322,131.648 -18.1761,119.304 -21.107,103.022 L-29.93,103.022 Z"
       fill="#09476b"
       fill-opacity="1"
       id="path6400" />
    <path
       d="M40.7228,38.2053 L40.7228,4.94706 C40.7228,-13.4325 25.8441,-28.3112 7.46452,-28.3112 C-10.915,-28.3112 -25.7937,-13.4325 -25.7937,4.94706 C-25.7937,23.3266 -10.915,38.2053 7.46452,38.2053 L40.7228,38.2053 Z M19.5224,4.75505 L19.5224,12.6308 C19.0708,13.1137 18.5763,13.6149 18.039,14.1344 C16.7342,15.407 14.9985,16.9212 12.8318,18.6771 C11.9439,19.3966 11.0567,20.1 10.1702,20.7871 L10.063,20.7871 L10.063,4.62735 L-3.90428,4.62735 L-3.90428,20.7871 L-13.3636,20.7871 L-13.3636,-15.8925 L-3.90428,-15.8925 L-3.90428,-2.46716 L10.063,-2.46716 L10.063,-15.8925 L19.5224,-15.8925 L19.5224,-2.14708 C20.5085,-2.24424 21.4953,-2.29282 22.483,-2.29282 C26.9934,-2.29282 30.4327,-1.34643 32.8006,0.546345 C35.1686,2.43912 36.3526,5.1172 36.3526,8.58058 C36.3526,10.8519 35.7848,13.0105 34.6491,15.0563 C33.5135,17.1021 31.7777,19.2123 29.442,21.387 C27.9761,22.7402 26.5021,23.9846 25.0201,25.1202 C23.5381,26.2559 22.483,27.0492 21.8548,27.5003 L38.0199,27.5003 L38.0199,34.3868 L9.7732,34.3868 L9.7732,28.4427 C11.9318,26.8801 14.0944,25.2209 16.261,23.4651 C18.4276,21.7092 20.1633,20.195 21.4681,18.9224 C23.4173,17.0377 24.8027,15.3946 25.6242,13.9931 C26.4457,12.5917 26.8565,11.2063 26.8565,9.83706 C26.8565,8.19397 26.329,6.92541 25.2738,6.03137 C24.2187,5.13734 22.7005,4.69032 20.7191,4.69032 C20.3256,4.69032 19.9267,4.7119 19.5224,4.75505 Z"
       fill="#09476b"
       fill-opacity="1"
       id="path6402" />
    <path
       d="M124.957,31.7269 L124.957,31.7269 L102.168,31.7269 L102.168,25.7828 C104.326,24.2202 106.489,22.561 108.655,20.8052 C110.822,19.0493 112.558,17.5351 113.863,16.2625 C115.812,14.3778 117.197,12.7347 118.019,11.3333 C118.84,9.93179 119.251,8.54644 119.251,7.1772 C119.251,5.53411 118.723,4.26554 117.668,3.37151 C116.613,2.47747 115.095,2.03046 113.114,2.03046 C112.72,2.03046 112.321,2.05204 111.917,2.09519 L111.917,9.97098 C111.465,10.4538 110.971,10.955 110.433,11.4745 C109.129,12.7471 107.393,14.2614 105.226,16.0172 C104.338,16.7368 103.451,17.4401 102.565,18.1272 L102.457,18.1272 L102.457,1.96749 L88.4902,1.96749 L88.4902,18.1272 L79.0308,18.1272 L79.0308,-18.5524 L88.4902,-18.5524 L88.4902,-5.12702 L102.457,-5.12702 L102.457,-18.5524 L111.917,-18.5524 L111.917,-4.80694 C112.903,-4.9041 113.89,-4.95268 114.877,-4.95268 C119.388,-4.95268 122.827,-4.00629 125.195,-2.11352 C127.563,-0.22074 128.747,2.45734 128.747,5.92072 C128.747,8.19205 128.179,10.3506 127.044,12.3964 C125.908,14.4422 124.172,16.5525 121.836,18.7272 C120.371,20.0803 118.897,21.3247 117.415,22.4604 C115.933,23.596 114.877,24.3894 114.249,24.8404 L130.414,24.8404 L130.414,24.9761 C133.728,19.6378 135.64,13.3376 135.64,6.58726 C135.64,-12.6987 120.028,-28.3112 100.742,-28.3112 C81.4559,-28.3112 65.8434,-12.6987 65.8434,6.58726 C65.8434,25.8732 81.4559,41.4857 100.742,41.4857 C110.149,41.4857 118.683,37.7709 124.957,31.7269 Z"
       fill="#09476b"
       fill-opacity="1"
       id="path6404" />
  </g>
</svg>
