<?xml version="1.0" encoding="UTF-8" standalone="no"?>
<!-- Created with Inkscape (http://www.inkscape.org/) -->

<svg
   xmlns:dc="http://purl.org/dc/elements/1.1/"
   xmlns:cc="http://creativecommons.org/ns#"
   xmlns:rdf="http://www.w3.org/1999/02/22-rdf-syntax-ns#"
   xmlns:svg="http://www.w3.org/2000/svg"
   xmlns="http://www.w3.org/2000/svg"
   xmlns:sodipodi="http://sodipodi.sourceforge.net/DTD/sodipodi-0.dtd"
   xmlns:inkscape="http://www.inkscape.org/namespaces/inkscape"
   width="210mm"
   height="297mm"
   viewBox="0 0 210 297"
   version="1.1"
   id="svg7986"
   inkscape:version="0.92.2 (5c3e80d, 2017-08-06)"
   sodipodi:docname="h2_v2_3_6.svg">
  <defs
     id="defs7980" />
  <sodipodi:namedview
     id="base"
     pagecolor="#ffffff"
     bordercolor="#666666"
     borderopacity="1.0"
     inkscape:pageopacity="0.0"
     inkscape:pageshadow="2"
     inkscape:zoom="0.98994949"
     inkscape:cx="302.31081"
     inkscape:cy="595.06942"
     inkscape:document-units="mm"
     inkscape:current-layer="layer1"
     showgrid="false"
     inkscape:window-width="3840"
     inkscape:window-height="2115"
     inkscape:window-x="-13"
     inkscape:window-y="-13"
     inkscape:window-maximized="1" />
  <metadata
     id="metadata7983">
    <rdf:RDF>
      <cc:Work
         rdf:about="">
        <dc:format>image/svg+xml</dc:format>
        <dc:type
           rdf:resource="http://purl.org/dc/dcmitype/StillImage" />
        <dc:title></dc:title>
      </cc:Work>
    </rdf:RDF>
  </metadata>
  <g
     inkscape:label="Layer 1"
     inkscape:groupmode="layer"
     id="layer1">
    <path
       d="m 126.85275,164.92512 v 0 h -21.15968 v -5.51913 c 2.00371,-1.45086 4.01207,-2.99143 6.02321,-4.62171 2.01207,-1.63035 3.62396,-3.0363 4.83565,-4.21792 1.80966,-1.74995 3.09563,-3.27558 3.85886,-4.57677 0.7623,-1.30132 1.14392,-2.58763 1.14392,-3.85897 0,-1.52561 -0.49024,-2.70349 -1.46982,-3.53359 -0.97957,-0.83013 -2.38904,-1.24518 -4.22841,-1.24518 -0.36584,0 -0.7363,0.0203 -1.11141,0.0601 v 7.3127 c -0.4197,0.44832 -0.87837,0.91368 -1.37791,1.39603 -1.21077,1.18161 -2.82265,2.58765 -4.83472,4.21792 -0.82451,0.66815 -1.6481,1.32116 -2.47075,1.95916 h -0.10028 V 137.29339 H 92.993183 v 15.00437 h -8.783096 v -34.05717 h 8.783096 v 12.46553 h 12.968227 v -12.46553 h 8.78366 v 12.76272 c 0.9155,-0.0901 1.83192,-0.13536 2.74836,-0.13536 4.18849,0 7.38162,0.87871 9.58031,2.63617 2.1987,1.75744 3.29804,4.24406 3.29804,7.45982 0,2.10895 -0.52739,4.11315 -1.58123,6.0127 -1.05479,1.89953 -2.66667,3.85895 -4.83565,5.87817 -1.36027,1.25636 -2.72888,2.41179 -4.10492,3.4663 -1.37604,1.0544 -2.35655,1.79107 -2.93965,2.20983 h 15.00928 v 0.12604 c 3.07706,-4.95662 4.85236,-10.8064 4.85236,-17.07411 0,-17.90709 -14.49581,-32.40337 -32.40294,-32.40337 -17.907228,0 -32.4035,14.49628 -32.4035,32.40337 0,17.90707 14.496272,32.40335 32.4035,32.40335 8.73444,0 16.6583,-3.44921 22.48372,-9.06109 z"
       id="path6404"
       inkscape:connector-curvature="0"
       style="fill:#09476b;fill-opacity:1;stroke-width:0.92850423" />
  </g>
</svg>
