<?xml version="1.0" encoding="UTF-8" standalone="no"?>
<!-- Created with Inkscape (http://www.inkscape.org/) -->

<svg
   xmlns:dc="http://purl.org/dc/elements/1.1/"
   xmlns:cc="http://creativecommons.org/ns#"
   xmlns:rdf="http://www.w3.org/1999/02/22-rdf-syntax-ns#"
   xmlns:svg="http://www.w3.org/2000/svg"
   xmlns="http://www.w3.org/2000/svg"
   xmlns:sodipodi="http://sodipodi.sourceforge.net/DTD/sodipodi-0.dtd"
   xmlns:inkscape="http://www.inkscape.org/namespaces/inkscape"
   width="210mm"
   height="297mm"
   viewBox="0 0 210 297"
   version="1.1"
   id="svg2068"
   inkscape:version="0.92.2 (5c3e80d, 2017-08-06)"
   sodipodi:docname="h2_v1_3.svg"
   inkscape:export-filename="C:\downloads\h2_v1_3.png"
   inkscape:export-xdpi="96"
   inkscape:export-ydpi="96">
  <defs
     id="defs2062" />
  <sodipodi:namedview
     id="base"
     pagecolor="#ffffff"
     bordercolor="#666666"
     borderopacity="1.0"
     inkscape:pageopacity="0.0"
     inkscape:pageshadow="2"
     inkscape:zoom="0.7"
     inkscape:cx="-357.98392"
     inkscape:cy="679.42022"
     inkscape:document-units="mm"
     inkscape:current-layer="layer1"
     showgrid="false"
     inkscape:window-width="3840"
     inkscape:window-height="2115"
     inkscape:window-x="-13"
     inkscape:window-y="-13"
     inkscape:window-maximized="1" />
  <metadata
     id="metadata2065">
    <rdf:RDF>
      <cc:Work
         rdf:about="">
        <dc:format>image/svg+xml</dc:format>
        <dc:type
           rdf:resource="http://purl.org/dc/dcmitype/StillImage" />
        <dc:title />
      </cc:Work>
    </rdf:RDF>
  </metadata>
  <g
     inkscape:label="Layer 1"
     inkscape:groupmode="layer"
     id="layer1">
    <path
       inkscape:connector-curvature="0"
       style="font-style:normal;font-variant:normal;font-weight:bold;font-stretch:normal;font-size:31.26885986px;line-height:125%;font-family:sans-serif;-inkscape-font-specification:'sans-serif Bold';letter-spacing:0px;word-spacing:0px;fill:#000000;fill-opacity:1;stroke:none;stroke-width:1.68297207px;stroke-linecap:butt;stroke-linejoin:miter;stroke-opacity:1"
       d="m 117.02146,107.63397 a 35.587856,35.587856 0 0 0 -17.74258,4.81569 H 95.75554 V 114.74 135.0352 H 78.16369 v -22.58554 h -11.9241 v 59.26093 h 11.9241 v -25.12512 h 17.59185 v 25.12512 a 35.587856,35.587856 0 0 0 21.26592,7.09892 35.587856,35.587856 0 0 0 35.58716,-35.58838 35.587856,35.587856 0 0 0 -35.58716,-35.58716 z m -0.394,9.40352 c 5.98563,0 10.63126,1.31749 13.93677,3.95294 3.32783,2.63545 4.99251,6.30963 4.99251,11.02221 0,2.72478 -0.70411,5.27024 -2.11116,7.63768 -1.40707,2.34511 -4.36627,5.49423 -8.87782,9.44742 l -10.68754,9.38097 h 22.01118 v 9.48069 h -35.68807 v -10.06453 l 17.5966,-15.53054 c 1.63042,-1.47406 2.83659,-2.91493 3.6183,-4.322 0.78168,-1.40709 1.17247,-2.86973 1.17247,-4.38848 0,-2.34512 -0.79243,-4.23241 -2.37817,-5.66181 -1.56341,-1.42939 -3.65153,-2.1444 -6.26466,-2.1444 -2.01009,0 -4.21074,0.43554 -6.6005,1.30657 -2.23323,0.79312 -4.61837,1.97241 -7.14404,3.50675 v -10.83944 c 2.72346,-0.87537 5.41837,-1.55234 8.08273,-2.01385 2.83649,-0.51369 5.61659,-0.77018 8.3414,-0.77018 z"
       id="text842-2" />
  </g>
</svg>
