<?xml version="1.0" encoding="UTF-8" standalone="no"?>
<!-- Created with Inkscape (http://www.inkscape.org/) -->

<svg
   xmlns:dc="http://purl.org/dc/elements/1.1/"
   xmlns:cc="http://creativecommons.org/ns#"
   xmlns:rdf="http://www.w3.org/1999/02/22-rdf-syntax-ns#"
   xmlns:svg="http://www.w3.org/2000/svg"
   xmlns="http://www.w3.org/2000/svg"
   xmlns:sodipodi="http://sodipodi.sourceforge.net/DTD/sodipodi-0.dtd"
   xmlns:inkscape="http://www.inkscape.org/namespaces/inkscape"
   width="210mm"
   height="297mm"
   viewBox="0 0 210 297"
   version="1.1"
   id="svg9684"
   inkscape:version="0.92.2 (5c3e80d, 2017-08-06)"
   sodipodi:docname="h2_v2_3_9.svg">
  <defs
     id="defs9678" />
  <sodipodi:namedview
     id="base"
     pagecolor="#ffffff"
     bordercolor="#666666"
     borderopacity="1.0"
     inkscape:pageopacity="0.0"
     inkscape:pageshadow="2"
     inkscape:zoom="1.4"
     inkscape:cx="251.63698"
     inkscape:cy="644.28473"
     inkscape:document-units="mm"
     inkscape:current-layer="layer1"
     showgrid="false"
     inkscape:window-width="3840"
     inkscape:window-height="2115"
     inkscape:window-x="-13"
     inkscape:window-y="-13"
     inkscape:window-maximized="1" />
  <metadata
     id="metadata9681">
    <rdf:RDF>
      <cc:Work
         rdf:about="">
        <dc:format>image/svg+xml</dc:format>
        <dc:type
           rdf:resource="http://purl.org/dc/dcmitype/StillImage" />
        <dc:title></dc:title>
      </cc:Work>
    </rdf:RDF>
  </metadata>
  <g
     inkscape:label="Layer 1"
     inkscape:groupmode="layer"
     id="layer1">
    <path
       d="m 116.03401,134.86683 c 0.48917,-0.052 0.97109,-0.0781 1.44576,-0.0781 2.39388,0 4.22736,0.5399 5.50158,1.6198 1.27425,1.07978 1.91197,2.61165 1.91197,4.59608 0,1.65473 -0.4964,3.32754 -1.48923,5.01968 -0.99161,1.69337 -2.66564,3.67781 -5.01967,5.95452 -1.5762,1.53635 -3.67175,3.36497 -6.28909,5.4859 -2.61733,2.12092 -5.22862,4.12468 -7.83629,6.01249 v 7.17925 h 34.11711 v -8.31701 h -19.52431 c 0.75851,-0.54471 2.03276,-1.50372 3.82274,-2.87459 1.78998,-1.37209 3.57029,-2.87581 5.34094,-4.50997 2.82147,-2.6258 4.91822,-5.17548 6.28909,-7.64547 1.37209,-2.4712 2.05812,-5.07886 2.05812,-7.8218 0,-4.18326 -1.43006,-7.4179 -4.29016,-9.70406 -2.8601,-2.28603 -7.01499,-3.4291 -12.46222,-3.4291 -1.19332,0 -2.38422,0.0586 -3.57634,0.17609 V 109.92865 H 104.6093 v 16.21526 H 87.739521 v -16.2153 H 76.314327 v 44.30163 H 87.739521 V 134.71271 H 104.6093 v 19.51753 h 0.12923 c 1.07133,-0.82975 2.14266,-1.67885 3.2152,-2.54847 2.61613,-2.11971 4.71289,-3.94955 6.28909,-5.4859 0.64859,-0.62805 1.24646,-1.23317 1.79119,-1.81656 v 0 z"
       id="path6392"
       inkscape:connector-curvature="0"
       style="fill:#09476b;fill-opacity:1;stroke-width:1.20781386" />
  </g>
</svg>
