<?xml version="1.0" encoding="UTF-8" standalone="no"?>
<!-- Created with Inkscape (http://www.inkscape.org/) -->

<svg
   xmlns:dc="http://purl.org/dc/elements/1.1/"
   xmlns:cc="http://creativecommons.org/ns#"
   xmlns:rdf="http://www.w3.org/1999/02/22-rdf-syntax-ns#"
   xmlns:svg="http://www.w3.org/2000/svg"
   xmlns="http://www.w3.org/2000/svg"
   xmlns:sodipodi="http://sodipodi.sourceforge.net/DTD/sodipodi-0.dtd"
   xmlns:inkscape="http://www.inkscape.org/namespaces/inkscape"
   width="210mm"
   height="297mm"
   viewBox="0 0 210 297"
   version="1.1"
   id="svg5722"
   inkscape:version="0.92.2 (5c3e80d, 2017-08-06)"
   sodipodi:docname="h2_v2_3_2.svg">
  <defs
     id="defs5716" />
  <sodipodi:namedview
     id="base"
     pagecolor="#ffffff"
     bordercolor="#666666"
     borderopacity="1.0"
     inkscape:pageopacity="0.0"
     inkscape:pageshadow="2"
     inkscape:zoom="0.98994949"
     inkscape:cx="93.101372"
     inkscape:cy="629.37977"
     inkscape:document-units="mm"
     inkscape:current-layer="layer1"
     showgrid="false"
     inkscape:window-width="3840"
     inkscape:window-height="2115"
     inkscape:window-x="-13"
     inkscape:window-y="-13"
     inkscape:window-maximized="1" />
  <metadata
     id="metadata5719">
    <rdf:RDF>
      <cc:Work
         rdf:about="">
        <dc:format>image/svg+xml</dc:format>
        <dc:type
           rdf:resource="http://purl.org/dc/dcmitype/StillImage" />
        <dc:title></dc:title>
      </cc:Work>
    </rdf:RDF>
  </metadata>
  <g
     inkscape:label="Layer 1"
     inkscape:groupmode="layer"
     id="layer1">
    <path
       d="m 122.30068,153.79072 v 0 c -4.30503,4.13397 -10.1523,6.67404 -16.59558,6.67404 -13.238069,0 -23.960255,-10.72218 -23.960255,-23.96025 0,-13.23786 10.722186,-23.96039 23.960255,-23.96039 13.23807,0 23.96025,10.72253 23.96025,23.96039 0,4.64134 -1.318,8.97339 -3.6003,12.64246 v -0.0915 h -11.11529 c 0.43202,-0.31011 1.15751,-0.85566 2.17654,-1.63658 1.01904,-0.78084 2.03257,-1.6365 3.04054,-2.56696 1.60603,-1.49527 2.79951,-2.94633 3.58042,-4.35303 0.78092,-1.4067 1.17134,-2.89097 1.17134,-4.45274 0,-2.38145 -0.81413,-4.22292 -2.44238,-5.52436 -1.62825,-1.30122 -3.99306,-1.95239 -7.09444,-1.95239 -0.67915,0 -1.35772,0.0337 -2.03576,0.1004 v -9.45184 h -6.5043 v 9.23179 h -9.60401 v -9.23179 h -6.504272 v 25.22146 h 6.504272 v -11.1115 h 9.60401 v 11.1115 h 0.0737 c 0.60959,-0.47245 1.21966,-0.95611 1.83018,-1.45085 1.48979,-1.20737 2.68328,-2.24853 3.58047,-3.12358 0.36947,-0.35722 0.70946,-0.70185 1.02,-1.03389 v -5.41538 c 0.278,-0.0298 0.55228,-0.0446 0.82287,-0.0446 1.36236,0 2.40637,0.30736 3.13185,0.92215 0.72549,0.61472 1.08827,1.48702 1.08827,2.61683 0,0.94146 -0.28246,1.89407 -0.84733,2.85769 -0.56494,0.96367 -1.51748,2.09348 -2.85776,3.38942 -0.89717,0.87504 -2.09066,1.91621 -3.58045,3.12357 -1.48978,1.20731 -2.9768,2.34818 -4.46105,3.42264 v 4.0872 z M 105.7051,106.55438 c -16.532597,0 -29.950335,13.41727 -29.950335,29.95013 0,16.53259 13.417738,29.95034 29.950335,29.95034 16.53259,0 29.95033,-13.41775 29.95033,-29.95034 0,-16.53286 -13.41774,-29.95013 -29.95033,-29.95013 z"
       id="path6398"
       inkscape:connector-curvature="0"
       style="fill:#09476b;fill-opacity:1;stroke-width:0.6876061" />
  </g>
</svg>
