<?xml version="1.0" encoding="UTF-8" standalone="no"?>
<!-- Created with Inkscape (http://www.inkscape.org/) -->

<svg
   xmlns:dc="http://purl.org/dc/elements/1.1/"
   xmlns:cc="http://creativecommons.org/ns#"
   xmlns:rdf="http://www.w3.org/1999/02/22-rdf-syntax-ns#"
   xmlns:svg="http://www.w3.org/2000/svg"
   xmlns="http://www.w3.org/2000/svg"
   xmlns:sodipodi="http://sodipodi.sourceforge.net/DTD/sodipodi-0.dtd"
   xmlns:inkscape="http://www.inkscape.org/namespaces/inkscape"
   width="210mm"
   height="297mm"
   viewBox="0 0 210 297"
   version="1.1"
   id="svg9118"
   inkscape:version="0.92.2 (5c3e80d, 2017-08-06)"
   sodipodi:docname="h2_v2_3_8.svg">
  <defs
     id="defs9112" />
  <sodipodi:namedview
     id="base"
     pagecolor="#ffffff"
     bordercolor="#666666"
     borderopacity="1.0"
     inkscape:pageopacity="0.0"
     inkscape:pageshadow="2"
     inkscape:zoom="1.4"
     inkscape:cx="78.259018"
     inkscape:cy="712.20645"
     inkscape:document-units="mm"
     inkscape:current-layer="layer1"
     showgrid="false"
     inkscape:window-width="3840"
     inkscape:window-height="2115"
     inkscape:window-x="-13"
     inkscape:window-y="-13"
     inkscape:window-maximized="1" />
  <metadata
     id="metadata9115">
    <rdf:RDF>
      <cc:Work
         rdf:about="">
        <dc:format>image/svg+xml</dc:format>
        <dc:type
           rdf:resource="http://purl.org/dc/dcmitype/StillImage" />
        <dc:title></dc:title>
      </cc:Work>
    </rdf:RDF>
  </metadata>
  <g
     inkscape:label="Layer 1"
     inkscape:groupmode="layer"
     id="layer1">
    <path
       d="m 70.421538,149.14608 h 7.149774 c 2.375073,-13.19439 13.90878,-23.19736 27.789548,-23.19736 13.88084,0 25.41456,10.00297 27.78956,23.19736 v 0 h 7.14976 c -2.44817,-17.09926 -17.16651,-30.25677 -34.93932,-30.25677 -17.772765,0 -32.491155,13.15751 -34.939322,30.25677 z m 0,10.08074 c 2.448167,17.09933 17.166557,30.25627 34.939322,30.25627 17.77281,0 32.49115,-13.15694 34.93932,-30.25627 h -7.14976 c -0.64148,3.56395 -1.95126,6.89451 -3.79498,9.85881 v -0.10787 h -13.0995 c 0.50907,-0.36548 1.36407,-1.00809 2.56502,-1.92867 1.20096,-0.92055 2.39542,-1.92864 3.58331,-3.02505 1.89276,-1.76253 3.29938,-3.47238 4.21962,-5.13037 0.92032,-1.65798 1.38044,-3.40697 1.38044,-5.24755 0,-2.80658 -0.95947,-4.97679 -2.8783,-6.51064 -1.91894,-1.53384 -4.70591,-2.30068 -8.36102,-2.30068 -0.8003,0 -1.60006,0.0393 -2.39914,0.11814 V 133.8142 h -7.66549 v 10.87934 H 95.381921 V 133.8142 H 87.71648 v 29.72371 h 7.665441 v -13.09529 h 11.318459 v 13.09529 h 0.0869 c 0.71838,-0.55673 1.43733,-1.12721 2.15684,-1.70986 1.7558,-1.42299 3.16234,-2.64987 4.21969,-3.68144 0.4354,-0.42059 0.83613,-0.82739 1.20207,-1.21797 v -6.38253 c 0.32763,-0.0349 0.65088,-0.0524 0.96976,-0.0524 1.60564,0 2.83594,0.36222 3.69094,1.08668 0.85509,0.72455 1.28254,1.75248 1.28254,3.08398 0,1.10962 -0.33281,2.23189 -0.99859,3.368 -0.66571,1.1353 -1.78838,2.46672 -3.36784,3.99425 -1.05744,1.03159 -2.46397,2.25847 -4.2197,3.68145 -1.75571,1.42299 -3.50819,2.76737 -5.25743,4.03314 v 4.81758 h 18.4536 c -5.07356,4.87186 -11.96475,7.86531 -19.55827,7.86531 -13.880775,0 -25.414482,-10.00304 -27.789555,-23.19727 z"
       id="path6400"
       inkscape:connector-curvature="0"
       style="fill:#09476b;fill-opacity:1;stroke-width:0.81035644" />
  </g>
</svg>
